<?xml version="1.0" encoding="UTF-8"?>
<svg version="1.1" viewBox="0 0 75 32" xmlns="http://www.w3.org/2000/svg">
<title>Matrix (protocol) logo</title>
 <g fill="#040404">
  <path d="m0.936 0.732v30.52h2.194v0.732h-3.035v-31.98h3.034v0.732zm8.45 9.675v1.544h0.044a4.461 4.461 0 0 1 1.487-1.368c0.58-0.323 1.245-0.485 1.993-0.485 0.72 0 1.377 0.14 1.972 0.42 0.595 0.279 1.047 0.771 1.355 1.477 0.338-0.5 0.796-0.941 1.377-1.323 0.58-0.383 1.266-0.574 2.06-0.574 0.602 0 1.16 0.074 1.674 0.22 0.514 0.148 0.954 0.383 1.322 0.707 0.366 0.323 0.653 0.746 0.859 1.268 0.205 0.522 0.308 1.15 0.308 1.887v7.633h-3.127v-6.464c0-0.383-0.015-0.743-0.044-1.082a2.305 2.305 0 0 0-0.242-0.882 1.473 1.473 0 0 0-0.584-0.596c-0.257-0.146-0.606-0.22-1.047-0.22-0.44 0-0.796 0.085-1.068 0.253-0.272 0.17-0.485 0.39-0.639 0.662a2.654 2.654 0 0 0-0.308 0.927 7.074 7.074 0 0 0-0.078 1.048v6.354h-3.128v-6.398c0-0.338-7e-3 -0.673-0.021-1.004a2.825 2.825 0 0 0-0.188-0.916 1.411 1.411 0 0 0-0.55-0.673c-0.258-0.168-0.636-0.253-1.135-0.253a2.33 2.33 0 0 0-0.584 0.1 1.94 1.94 0 0 0-0.705 0.374c-0.228 0.184-0.422 0.449-0.584 0.794-0.161 0.346-0.242 0.798-0.242 1.357v6.619h-3.129v-11.41zm16.46 1.677a3.751 3.751 0 0 1 1.233-1.17 5.37 5.37 0 0 1 1.685-0.629 9.579 9.579 0 0 1 1.884-0.187c0.573 0 1.153 0.04 1.74 0.121 0.588 0.081 1.124 0.24 1.609 0.475 0.484 0.235 0.88 0.562 1.19 0.981 0.308 0.42 0.462 0.975 0.462 1.666v5.934c0 0.516 0.03 1.008 0.088 1.478 0.058 0.471 0.161 0.824 0.308 1.06h-3.171a4.435 4.435 0 0 1-0.22-1.104c-0.5 0.515-1.087 0.876-1.762 1.081a7.084 7.084 0 0 1-2.071 0.31c-0.544 0-1.05-0.067-1.52-0.2a3.472 3.472 0 0 1-1.234-0.617 2.87 2.87 0 0 1-0.826-1.059c-0.199-0.426-0.298-0.934-0.298-1.522 0-0.647 0.114-1.18 0.342-1.6 0.227-0.419 0.52-0.753 0.881-1.004 0.36-0.25 0.771-0.437 1.234-0.562 0.462-0.125 0.929-0.224 1.399-0.298 0.47-0.073 0.932-0.132 1.387-0.176 0.456-0.044 0.86-0.11 1.212-0.199 0.353-0.088 0.631-0.217 0.837-0.386s0.301-0.415 0.287-0.74c0-0.337-0.055-0.606-0.166-0.804a1.217 1.217 0 0 0-0.44-0.464 1.737 1.737 0 0 0-0.639-0.22 5.292 5.292 0 0 0-0.782-0.055c-0.617 0-1.101 0.132-1.454 0.397-0.352 0.264-0.558 0.706-0.617 1.323h-3.128c0.044-0.735 0.227-1.345 0.55-1.83zm6.179 4.423a5.095 5.095 0 0 1-0.639 0.165 9.68 9.68 0 0 1-0.716 0.11c-0.25 0.03-0.5 0.067-0.749 0.11a5.616 5.616 0 0 0-0.694 0.177 2.057 2.057 0 0 0-0.594 0.298c-0.17 0.125-0.305 0.284-0.408 0.474-0.103 0.192-0.154 0.434-0.154 0.728 0 0.28 0.051 0.515 0.154 0.706 0.103 0.192 0.242 0.342 0.419 0.453 0.176 0.11 0.381 0.187 0.617 0.231 0.234 0.044 0.477 0.066 0.726 0.066 0.617 0 1.094-0.102 1.432-0.309 0.338-0.205 0.587-0.452 0.75-0.739 0.16-0.286 0.26-0.576 0.297-0.87 0.036-0.295 0.055-0.53 0.055-0.707v-1.17a1.4 1.4 0 0 1-0.496 0.277zm11.86-6.1v2.096h-2.291v5.647c0 0.53 0.088 0.883 0.264 1.059 0.176 0.177 0.529 0.265 1.057 0.265 0.177 0 0.345-7e-3 0.507-0.022 0.161-0.015 0.316-0.037 0.463-0.066v2.426a7.49 7.49 0 0 1-0.882 0.089 21.67 21.67 0 0 1-0.947 0.022c-0.484 0-0.944-0.034-1.377-0.1a3.233 3.233 0 0 1-1.145-0.386 2.04 2.04 0 0 1-0.782-0.816c-0.191-0.353-0.287-0.816-0.287-1.39v-6.728h-1.894v-2.096h1.894v-3.42h3.129v3.42h2.29zm4.471 0v2.118h0.044a3.907 3.907 0 0 1 1.454-1.754 4.213 4.213 0 0 1 1.036-0.497 3.734 3.734 0 0 1 1.145-0.176c0.206 0 0.433 0.037 0.683 0.11v2.912a5.862 5.862 0 0 0-0.528-0.077 5.566 5.566 0 0 0-0.595-0.033c-0.573 0-1.058 0.096-1.454 0.287a2.52 2.52 0 0 0-0.958 0.783 3.143 3.143 0 0 0-0.518 1.158 6.32 6.32 0 0 0-0.154 1.434v5.14h-3.128v-11.4zm5.684-1.765v-2.582h3.128v2.582h-3.127zm3.128 1.765v11.4h-3.127v-11.4h3.128zm1.63 0h3.569l2.005 2.978 1.982-2.978h3.459l-3.745 5.339 4.208 6.067h-3.57l-2.378-3.596-2.38 3.596h-3.502l4.097-6.001zm15.3 20.84v-30.52h-2.194v-0.732h3.035v31.98h-3.035v-0.732z"/>
 </g>
</svg>