<svg width="511" height="511" viewBox="0 0 511 511" fill="none" xmlns="http://www.w3.org/2000/svg">
<rect width="511" height="511" fill="#2B50AA"/>
<path d="M186.793 359.032C187.886 360.034 189.253 360.581 190.529 360.581C191.804 360.581 193.262 360.034 194.265 359.032L206.84 347.004C207.933 346.001 208.571 344.543 208.571 343.085C208.571 341.627 207.933 340.169 206.84 339.167L119.545 255.79L206.84 172.414C207.933 171.411 208.571 169.953 208.571 168.495C208.571 167.037 207.933 165.58 206.84 164.577L194.265 152.549C193.171 151.547 191.896 151 190.529 151C189.162 151 187.795 151.547 186.793 152.549L82.7313 251.872C81.6378 252.875 81 254.332 81 255.79C81 257.248 81.6378 258.706 82.7313 259.709L186.793 359.032ZM392.455 255.79L305.16 339.167C304.067 340.169 303.429 341.627 303.429 343.085C303.429 344.543 304.067 346.001 305.16 347.004L317.735 359.032C318.829 360.034 320.196 360.581 321.471 360.581C322.747 360.581 324.205 360.034 325.207 359.032L429.269 259.709C430.362 258.706 431 257.248 431 255.79C431 254.332 430.362 252.875 429.269 251.872L325.207 152.549C324.114 151.547 322.747 151 321.471 151C320.104 151 318.738 151.547 317.735 152.549L305.16 164.577C304.067 165.58 303.429 167.037 303.429 168.495C303.429 169.953 304.067 171.411 305.16 172.414L392.455 255.79Z" fill="#C5D5EA"/>
<path d="M186.064 245.585C185.973 249.138 187.34 252.51 189.891 255.061L189.982 255.152C192.442 257.613 195.632 258.98 199.094 258.98C202.284 258.98 205.291 257.795 207.66 255.699L243.106 224.171V320.851C243.106 327.959 248.938 333.791 256.046 333.791C263.153 333.791 268.985 327.959 268.985 320.851V224.08L304.431 255.608C306.801 257.704 309.899 258.888 312.997 258.888C316.46 258.888 319.74 257.522 322.2 255.061L322.291 254.97C324.843 252.419 326.119 249.138 326.119 245.493C326.027 241.94 324.569 238.659 321.927 236.199L264.702 183.622C262.333 181.435 259.235 180.25 256.046 180.25C252.856 180.25 249.758 181.435 247.389 183.622L190.164 236.199C187.613 238.75 186.064 242.031 186.064 245.585Z" fill="#C5D5EA"/>
</svg>
